<?xml version="1.0" standalone="no"?>
<!DOCTYPE svg PUBLIC "-//W3C//DTD SVG 20010904//EN"
 "http://www.w3.org/TR/2001/REC-SVG-20010904/DTD/svg10.dtd">
<svg version="1.0" xmlns="http://www.w3.org/2000/svg"
 width="512.000000pt" height="512.000000pt" viewBox="0 0 512.000000 512.000000"
 preserveAspectRatio="xMidYMid meet">

<g transform="translate(0.000000,512.000000) scale(0.100000,-0.100000)"
fill="#000000" stroke="none">
<path d="M2492 3895 c-182 -104 -498 -209 -767 -255 -64 -11 -125 -24 -135
-30 -28 -15 -33 -64 -26 -213 14 -263 55 -496 122 -690 20 -56 38 -109 41
-118 3 -12 17 -3 55 37 l50 53 -31 93 c-59 180 -93 375 -107 610 l-6 117 23 5
c13 3 74 15 134 27 196 38 449 122 622 207 l91 45 95 -46 c185 -89 423 -167
641 -211 72 -15 132 -28 134 -30 7 -7 -19 -317 -33 -404 -68 -398 -214 -707
-445 -946 -111 -114 -184 -175 -305 -250 l-86 -55 -67 41 c-77 47 -199 137
-225 166 -18 20 -18 20 2 27 11 3 42 31 70 61 119 130 124 312 13 427 -116
120 -323 123 -464 7 -42 -35 -101 -146 -96 -180 1 -13 16 -32 31 -44 26 -19
30 -19 55 -5 15 8 35 33 45 54 56 120 200 169 306 104 65 -40 90 -133 57 -213
-19 -45 -76 -101 -134 -130 -92 -47 -98 -83 -26 -158 97 -99 385 -298 432
-298 28 0 173 87 284 170 441 332 677 836 714 1526 8 149 2 199 -26 214 -10 6
-71 19 -135 30 -245 42 -472 113 -684 216 -73 35 -143 64 -155 64 -11 0 -40
-11 -64 -25z"/>
<path d="M2242 3048 c-29 -15 -39 -55 -21 -87 l15 -26 318 -3 c286 -2 321 -1
338 14 24 22 23 69 -2 94 -19 19 -33 20 -322 19 -198 0 -311 -4 -326 -11z"/>
<path d="M2373 1323 c-34 -7 -73 -59 -73 -97 0 -71 77 -120 144 -92 33 14 36
18 36 55 0 34 -3 41 -19 41 -15 0 -21 -8 -23 -32 -3 -29 -7 -33 -32 -33 -20 0
-35 9 -50 28 -19 26 -19 30 -6 54 23 40 44 50 79 36 23 -8 33 -8 41 2 20 24
-43 50 -97 38z"/>
<path d="M1310 1225 l0 -95 61 0 c54 0 64 3 90 29 42 42 41 99 -2 135 -25 22
-41 26 -90 26 l-59 0 0 -95z m127 38 c31 -42 7 -90 -50 -100 l-37 -6 0 68 0
68 37 -6 c21 -4 44 -14 50 -24z"/>
<path d="M1535 1225 l0 -95 78 0 c61 0 77 3 77 15 0 10 -15 15 -57 17 -50 3
-58 6 -58 23 0 17 8 20 48 23 32 2 47 8 47 17 0 9 -15 15 -47 17 -40 3 -48 6
-48 23 0 17 8 20 53 23 37 2 52 7 52 18 0 11 -16 14 -72 14 l-73 0 0 -95z"/>
<path d="M1730 1225 l0 -95 68 0 c54 0 72 4 85 18 22 24 22 58 0 71 -15 8 -16
12 -5 22 17 18 15 44 -4 63 -11 11 -35 16 -80 16 l-64 0 0 -95z m115 55 c11
-18 -15 -40 -46 -40 -24 0 -29 4 -29 25 0 22 4 25 34 25 19 0 38 -5 41 -10z
m10 -95 c0 -16 -8 -21 -42 -23 -40 -3 -43 -2 -43 23 0 25 3 26 43 23 34 -2 42
-7 42 -23z"/>
<path d="M1940 1225 c0 -88 1 -95 20 -95 19 0 20 7 20 95 0 88 -1 95 -20 95
-19 0 -20 -7 -20 -95z"/>
<path d="M2020 1305 c0 -10 10 -15 30 -15 l30 0 0 -80 c0 -73 2 -80 20 -80 18
0 20 7 20 80 l0 80 35 0 c24 0 35 5 35 15 0 12 -16 15 -85 15 -69 0 -85 -3
-85 -15z"/>
<path d="M2530 1251 c0 -77 20 -115 66 -124 35 -6 82 10 94 33 6 10 10 50 10
89 0 64 -2 71 -20 71 -18 0 -20 -7 -20 -68 0 -69 -10 -92 -40 -92 -33 0 -50
33 -50 98 0 55 -2 62 -20 62 -18 0 -20 -7 -20 -69z"/>
<path d="M2773 1225 c-41 -94 -41 -95 -18 -95 14 0 25 7 28 20 4 16 14 20 52
20 38 0 48 -4 52 -20 3 -13 14 -20 28 -20 23 0 23 1 -18 95 -33 78 -44 95 -62
95 -18 0 -29 -17 -62 -95z m87 -12 c0 -7 -11 -13 -25 -13 -28 0 -30 6 -14 47
l11 28 13 -25 c8 -14 14 -31 15 -37z"/>
<path d="M2970 1225 c0 -88 1 -95 20 -95 16 0 20 7 20 30 0 23 5 30 19 30 11
0 29 -13 41 -30 14 -20 30 -30 46 -30 l25 0 -25 33 c-25 32 -25 33 -6 45 14 8
20 23 20 46 0 52 -21 66 -96 66 l-64 0 0 -95z m104 59 c24 -9 19 -43 -8 -56
-35 -16 -56 -4 -56 32 0 25 4 30 24 30 13 0 31 -3 40 -6z"/>
<path d="M3180 1225 l0 -95 55 0 c72 0 110 20 125 64 9 27 8 41 -4 69 -19 46
-41 57 -115 57 l-61 0 0 -95z m118 49 c15 -10 22 -25 22 -48 0 -40 -16 -55
-64 -63 l-36 -6 0 67 c0 66 0 66 28 66 15 0 38 -7 50 -16z"/>
<path d="M3410 1225 c0 -88 1 -95 20 -95 19 0 20 7 20 95 0 88 -1 95 -20 95
-19 0 -20 -7 -20 -95z"/>
<path d="M3523 1225 c-41 -95 -41 -95 -18 -95 15 0 26 7 30 20 5 16 15 20 52
20 36 0 46 -4 50 -20 3 -13 14 -20 29 -20 l23 0 -35 83 c-20 45 -38 88 -41 95
-3 6 -15 12 -27 12 -17 0 -29 -18 -63 -95z m82 3 c6 -25 5 -28 -19 -28 -29 0
-31 7 -14 45 13 29 23 23 33 -17z"/>
<path d="M3720 1225 c0 -88 1 -95 20 -95 18 0 20 7 20 55 0 30 3 55 8 54 4 0
26 -25 50 -55 63 -79 72 -74 72 41 0 88 -2 95 -20 95 -16 0 -19 -8 -22 -55
l-3 -55 -42 55 c-27 34 -50 55 -63 55 -19 0 -20 -7 -20 -95z"/>
</g>
</svg>
